<?xml version="1.0" encoding="utf-8"?>
<!-- Generator: Adobe Illustrator 16.0.0, SVG Export Plug-In . SVG Version: 6.00 Build 0)  -->
<!DOCTYPE svg PUBLIC "-//W3C//DTD SVG 1.1//EN" "http://www.w3.org/Graphics/SVG/1.1/DTD/svg11.dtd">
<svg version="1.1" id="Layer_1" xmlns="http://www.w3.org/2000/svg" xmlns:xlink="http://www.w3.org/1999/xlink" x="0px" y="0px"
	 width="1000px" height="200px" viewBox="0 0 1000 200" enable-background="new 0 0 1000 200" xml:space="preserve">
<path fill="#004EBC" d="M397.265,151.433v-16.364h0.011c4.691,0,8.465-1.761,11.271-5.26c2.806-3.529,4.221-8.221,4.221-14.105
	c0-5.856-1.415-10.577-4.271-14.153c-2.828-3.55-6.579-5.338-11.22-5.338h-0.011V79.777h0.011c11.245,0,20.384,3.35,27.458,10.03
	c7.05,6.702,10.576,15.346,10.576,25.896c0,10.527-3.526,19.118-10.55,25.772c-7.029,6.629-16.188,9.957-27.485,9.957H397.265
	L397.265,151.433z M440.671,150.114V81.166h21.599v8.642c3.353-3.428,6.904-5.959,10.65-7.599c3.75-1.613,7.947-2.431,12.539-2.431
	c5.14,0,9.384,1.041,12.736,3.126c3.353,2.087,5.911,5.266,7.697,9.535c4.42-4.668,8.614-7.944,12.563-9.831
	c3.946-1.888,8.492-2.83,13.629-2.83c7.549,0,13.346,2.283,17.365,6.875c4.023,4.569,6.03,11.196,6.03,19.816v43.646h-21.732
	v-40.669c0-5.087-0.771-8.715-2.283-10.9c-1.537-2.184-4.024-3.278-7.447-3.278c-3.004,0-5.811,0.919-8.369,2.733
	c-2.582,1.813-4.939,4.547-7.124,8.17v43.944h-21.103v-40.669c0-5.036-0.77-8.663-2.285-10.876
	c-1.539-2.208-4.021-3.303-7.448-3.303c-2.954,0-5.733,0.919-8.342,2.733c-2.582,1.813-4.939,4.547-7.076,8.17v43.944H440.671
	L440.671,150.114z M564.865,150.114V81.166h21.599v8.642c3.352-3.428,6.9-5.959,10.649-7.599c3.748-1.613,7.948-2.431,12.537-2.431
	c5.143,0,9.388,1.041,12.739,3.126c3.352,2.087,5.91,5.266,7.695,9.535c4.42-4.668,8.615-7.944,12.561-9.831
	c3.948-1.888,8.492-2.83,13.633-2.83c7.546,0,13.357,2.283,17.378,6.875c4.021,4.569,6.034,11.196,6.034,19.816v43.646h-21.746
	v-40.669c0-5.087-0.773-8.715-2.286-10.9c-1.541-2.184-4.024-3.278-7.448-3.278c-3.006,0-5.809,0.919-8.366,2.733
	c-2.582,1.813-4.941,4.547-7.124,8.17v43.944H611.61v-40.669c0-5.036-0.768-8.663-2.281-10.876
	c-1.538-2.208-4.021-3.303-7.448-3.303c-2.956,0-5.735,0.919-8.345,2.733c-2.579,1.813-4.938,4.547-7.072,8.17v43.944H564.865z
	 M356.784,141.6c-6.107,3.499-12.363,6.084-18.77,7.797c-6.404,1.688-13.109,2.527-20.135,2.527c-7.97,0-15.269-1.213-21.948-3.62
	c-6.653-2.434-12.487-6.01-17.477-10.7c-5.139-4.892-9.064-10.627-11.744-17.182c-2.706-6.532-4.047-13.558-4.047-21.083
	c0-15.813,5.264-28.553,15.816-38.234c10.551-9.657,24.48-14.499,41.784-14.499c6.208,0,12.265,0.67,18.149,2.036
	c5.908,1.365,11.745,3.453,17.503,6.256v23.859c-5.636-3.649-11.27-6.355-16.958-8.144c-5.659-1.812-11.346-2.705-17.006-2.705
	c-10.277,0-18.372,2.78-24.257,8.366c-5.884,5.586-8.837,13.26-8.837,23.065c0,9.513,2.804,17.111,8.44,22.771
	c5.612,5.686,13.184,8.514,22.692,8.514c6.109,0,12.24-1.065,18.397-3.227c6.158-2.159,12.29-5.361,18.396-9.584V141.6
	L356.784,141.6z M397.265,79.777v16.435c-4.614,0.003-8.357,1.791-11.211,5.338c-2.856,3.576-4.295,8.297-4.295,14.153
	c0,5.885,1.415,10.576,4.271,14.105c2.826,3.497,6.571,5.257,11.235,5.26v16.364c-11.218-0.006-20.301-3.307-27.324-9.933
	c-7.003-6.63-10.504-15.221-10.504-25.797c0-10.602,3.501-19.268,10.504-25.922C376.964,83.105,386.047,79.78,397.265,79.777z"/>
<path fill="#685C53" d="M947.64,151.542v-14.896c2.233,0.557,4.705,0.831,7.424,0.831c4.367,0,8.74-0.769,13.106-2.33
	c4.349-1.567,8.742-3.876,13.161-6.928v14.349c-4.695,3.053-9.658,5.314-14.871,6.802c-5.217,1.465-10.775,2.212-16.711,2.212
	C949.037,151.581,948.335,151.566,947.64,151.542L947.64,151.542z M947.64,119.427v-10.585l13.384-0.041
	c-0.397-4.469-1.74-7.943-4.048-10.478c-2.285-2.507-5.264-3.775-8.888-3.775l-0.448,0.006V79.778l0.299-0.001
	c10.801,0,19.34,3.449,25.592,10.376c6.262,6.901,9.389,16.414,9.389,28.557v0.717H947.64z M947.64,79.778v14.775
	c-3.553,0.099-6.479,1.362-8.838,3.77c-2.459,2.535-3.975,6.036-4.543,10.555l13.381-0.036v10.585h-13.532v0.3
	c0,5.487,1.862,9.808,5.614,12.985c2.169,1.852,4.807,3.164,7.918,3.934v14.896c-10.865-0.361-19.473-3.605-25.821-9.72
	c-4.009-3.861-6.827-8.625-8.45-14.273v-24.662c1.591-5.258,4.338-9.778,8.229-13.553C928.14,83.012,936.83,79.836,947.64,79.778
	L947.64,79.778z M913.368,90.792l1.65-5.631c-0.561-0.357-1.109-0.699-1.65-1.021V90.792z M913.368,84.141v6.652l-4.158,14.163
	c-2.184-1.691-4.197-2.931-6.057-3.702c-1.841-0.772-3.652-1.169-5.438-1.169c-4.123,0-7.819,1.815-11.099,5.463
	c-3.277,3.626-5.612,8.592-7.026,14.901v29.665h-21.748V81.166h21.748v18.472c3.672-6.977,7.226-11.993,10.626-15.02
	c3.4-3.028,7.101-4.545,11.124-4.545c1.982,0,4.098,0.424,6.306,1.242C909.38,81.964,911.3,82.91,913.368,84.141L913.368,84.141z
	 M913.368,102.887c-1.102,3.635-1.65,7.619-1.65,11.947c0,4.646,0.549,8.886,1.65,12.715V102.887L913.368,102.887z M813.951,149.634
	v-11.862c1.104-0.163,2.271-0.488,3.499-0.964c1.837-0.72,3.773-1.788,5.809-3.204v-16.858c-3.722,1.309-6.825,2.539-9.308,3.692
	v-11.736c2.872-0.909,5.977-1.843,9.308-2.805c0.052-0.247,0.078-0.521,0.102-0.795c0.025-0.298,0.047-0.692,0.047-1.19
	c0-3.28-1.115-5.715-3.299-7.303c-1.499-1.061-3.557-1.766-6.157-2.111V79.834c0.999-0.039,2.016-0.058,3.054-0.058
	c9.956,0,17.153,1.911,21.599,5.732c4.466,3.85,6.705,9.983,6.705,18.402v27.436c0,1.612,0.222,2.729,0.645,3.352
	c0.445,0.62,1.167,0.939,2.187,0.939c0.939,0,1.885-0.121,2.879-0.368c0.994-0.226,2.334-0.698,3.971-1.365v12.064
	c-3.922,1.89-7.399,3.277-10.452,4.146c-3.03,0.871-5.909,1.318-8.614,1.318c-3.452,0-6.157-0.646-8.121-1.939
	c-1.961-1.266-3.104-3.202-3.447-5.784c-3.256,2.635-6.633,4.567-10.156,5.834L813.951,149.634z M780.211,141.6
	c-6.105,3.499-12.36,6.084-18.77,7.797c-6.404,1.688-13.106,2.527-20.135,2.527c-7.967,0-15.268-1.213-21.944-3.62
	c-6.656-2.434-12.489-6.01-17.479-10.7c-5.14-4.892-9.064-10.627-11.742-17.182c-2.709-6.532-4.051-13.558-4.051-21.083
	c0-15.813,5.266-28.553,15.816-38.234c10.549-9.657,24.48-14.499,41.784-14.499c6.206,0,12.267,0.67,18.147,2.036
	c5.912,1.365,11.745,3.453,17.505,6.256v23.859c-5.636-3.649-11.272-6.355-16.957-8.144c-5.661-1.812-11.346-2.705-17.007-2.705
	c-10.279,0-18.371,2.78-24.258,8.366c-5.883,5.586-8.838,13.26-8.838,23.065c0,9.513,2.807,17.111,8.443,22.771
	c5.607,5.686,13.182,8.514,22.691,8.514c6.108,0,12.238-1.065,18.396-3.227c6.158-2.159,12.29-5.361,18.396-9.584V141.6
	L780.211,141.6z M813.951,79.834v14.663c-1.236-0.164-2.594-0.247-4.071-0.247c-3.876,0-7.846,0.942-11.944,2.831
	c-4.071,1.887-8.044,4.643-11.917,8.22l0.299-17.158c4.173-2.806,8.765-4.917,13.779-6.307
	C804.282,80.697,808.899,80.025,813.951,79.834L813.951,79.834z M813.951,108.701v11.736c-2.47,1.146-4.325,2.208-5.562,3.187
	c-2.509,1.96-3.75,4.295-3.75,7c0,2.239,0.67,3.999,2.035,5.314c1.365,1.318,3.227,1.962,5.611,1.962
	c0.539,0,1.094-0.045,1.665-0.129v11.862c-3.434,1.205-7.126,1.799-11.05,1.799c-6.654,0-11.668-1.618-15.07-4.842
	c-3.4-3.23-5.09-8.019-5.09-14.354c0-5.532,2.508-10.081,7.523-13.653C794.297,115.733,802.19,112.429,813.951,108.701z"/>
<g>
	<g>
		<path fill="#004EBC" d="M100.674,169.755l-0.16,0.324l-0.158,0.322c-0.216,0.107-0.376,0.217-0.538,0.295
			c-0.163,0.082-0.322,0.137-0.54,0.137c-4.616,3.277-9.423,6.064-14.281,8.467c-4.859,2.408-9.774,4.42-14.608,6.135
			c0-2.357,0.109-4.748,0.218-7.098c0.107-2.35,0.213-4.66,0.213-6.859v-0.541v-0.535v-0.322v-0.324
			c-0.105-1.936-0.482-3.76-1.114-5.502c-0.63-1.746-1.517-3.41-2.644-5.018c-3.704-4.947-8.646-7.52-14.043-8.863
			c-5.396-1.342-11.249-1.449-16.78-1.449c3.707-12.672,10.956-23.842,20.484-32.459c9.532-8.623,21.346-14.689,34.181-17.164
			c4.835-1.129,9.722-2.258,14.659-2.9c4.942-0.646,9.936-0.807,14.982,0c-4.779,3.061-9.935,5.429-14.995,8.003
			c-5.062,2.578-10.027,5.371-14.431,9.295c-4.78,4.404-9.693,9.26-13.412,14.807c-3.719,5.545-6.241,11.771-6.241,18.914
			c-0.43,1.184-0.188,2.176,0.415,3.062c0.602,0.885,1.571,1.664,2.59,2.412c2.686,1.615,5.854,2.469,9.011,2.445
			c3.153-0.027,6.295-0.941,8.926-2.875c1.771-1.982,2.713-4.4,3.318-6.973c0.603-2.584,0.87-5.324,1.3-7.951
			c5.64-1.557,10.901,0.615,14.259,4.48c3.355,3.865,4.806,9.428,2.818,14.633c-1.828,2.471-3.866,4.783-6.107,6.955
			C105.75,165.784,103.308,167.819,100.674,169.755z"/>
		<path fill="#004EBC" d="M64.485,170.401c0.373,1.398,0.75,2.766,0.939,4.186c0.187,1.424,0.187,2.904-0.189,4.514
			c-0.16,1.344-0.482,2.473-0.902,3.531c-0.414,1.061-0.924,2.057-1.46,3.133c-0.751,1.068-1.558,2.121-2.468,3.152
			c-0.915,1.031-1.936,2.053-3.118,3.072c-1.339,0.537-2.709,1.074-4.104,1.49c-1.397,0.418-2.823,0.711-4.271,0.762
			c-2.255,0.221-4.563,0.109-6.742-0.373c-2.17-0.482-4.214-1.342-5.931-2.633c-1.073-0.799-2.123-1.637-3.048-2.533
			c-0.928-0.904-1.73-1.869-2.324-2.938c-1.019-1.562-1.93-3.443-2.588-5.389c-0.66-1.945-1.062-3.961-1.062-5.789
			c0,0,0-0.588,0.056-1.406c0.053-0.818,0.159-1.867,0.375-2.779c0.161-0.695,0.161-0.695,0.122-0.52
			c-0.041,0.168-0.122,0.52-0.122,0.52c0.161-1.234,0.562-2.604,1.141-3.904c0.577-1.305,1.328-2.537,2.188-3.504
			c0.859-1.131,1.881-2.072,2.928-2.887c1.045-0.816,2.121-1.516,3.087-2.16c0.805-0.434,1.612-0.832,2.472-1.158
			c0.857-0.318,1.771-0.562,2.791-0.672c0.807-0.266,1.531-0.4,2.323-0.467c0.792-0.064,1.651-0.064,2.725-0.064
			c1.451,0.266,2.793,0.641,4.014,1.164c1.221,0.521,2.321,1.193,3.29,2.051c1.345,0.535,2.603,1.289,3.745,2.221
			c1.142,0.922,2.161,2.029,3.021,3.26c0.753,0.967,1.396,1.963,1.919,2.979C63.811,168.28,64.214,169.327,64.485,170.401z"/>
	</g>
	<g>
		<path fill="#685C53" d="M193.899,121.753l0.268,0.375l0.269,0.375c0,0.16,0.055,0.295,0.174,0.426
			c0.124,0.139,0.312,0.277,0.578,0.434c3.06,4.246,5.64,8.916,7.947,13.811c2.31,4.9,4.349,10.033,6.338,15.189
			c-2.363,0-4.727-0.238-7.101-0.484c-2.378-0.242-4.768-0.484-7.185-0.484h-0.378h-0.374c-0.053,0-0.187,0-0.308,0
			c-0.12,0-0.229,0-0.229,0c-1.88,0.111-3.84,0.484-5.745,1.168c-1.907,0.686-3.761,1.68-5.424,3.023
			c-4.995,3.705-7.491,8.643-8.807,13.986c-1.318,5.342-1.45,11.086-1.719,16.404c-12.404-3.438-23.358-10.658-31.87-20.205
			c-8.511-9.545-14.58-21.414-17.213-34.137c-0.911-4.834-1.902-9.803-2.498-14.795c-0.587-4.994-0.776-10.018-0.079-14.959
			c2.901,4.887,5.183,10.123,7.733,15.182c2.55,5.066,5.373,9.951,9.345,14.141c4.402,4.836,9.343,9.857,14.872,13.666
			c5.532,3.816,11.654,6.418,18.421,6.418c1.184,0.162,2.392-0.213,3.396-0.805c1.007-0.598,1.812-1.396,2.189-2.096
			c1.558-2.906,2.36-6.201,2.36-9.439c0-3.232-0.803-6.4-2.47-9.037c-2.363-1.666-4.777-2.598-7.274-3.176
			c-2.498-0.578-5.075-0.793-7.76-1.008c-1.558-5.691,0.567-11.006,4.389-14.432c3.827-3.426,9.359-4.957,14.62-3.074
			c2.74,1.773,5.263,3.838,7.532,6.123C190.166,116.62,192.182,119.124,193.899,121.753z"/>
		<path fill="#685C53" d="M194.435,157.946c1.289-0.434,2.794-0.756,4.286-0.918c1.489-0.158,2.963-0.158,4.196,0.055
			c1.184,0.164,2.364,0.43,3.506,0.863c1.143,0.426,2.241,1.02,3.262,1.82c1.237,0.537,2.337,1.348,3.293,2.262
			c0.954,0.91,1.753,1.932,2.4,2.896c0.913,1.396,1.558,2.82,2.002,4.297c0.442,1.475,0.684,3.012,0.79,4.615
			c0.159,1.988-0.027,4.188-0.548,6.314c-0.525,2.121-1.386,4.162-2.569,5.824c-0.693,1.072-1.45,2.064-2.292,3.049
			c-0.847,0.979-1.787,1.945-2.86,2.965c-1.663,0.912-3.491,1.742-5.357,2.354c-1.865,0.6-3.77,0.975-5.6,0.975
			c0,0-0.802,0-1.77-0.08c-0.967-0.076-2.094-0.24-2.739-0.564c-0.913-0.211-0.913-0.211-0.684-0.162
			c0.228,0.055,0.684,0.162,0.684,0.162c-1.449-0.211-2.792-0.619-4.119-1.193c-1.332-0.574-2.647-1.33-4.044-2.244
			c-0.803-0.799-1.69-1.664-2.536-2.617s-1.65-1.996-2.295-3.184c-0.375-0.746-0.805-1.5-1.157-2.305
			c-0.348-0.809-0.613-1.668-0.669-2.633c-0.161-1.125-0.242-1.961-0.242-2.738s0.081-1.504,0.242-2.416
			c0-1.289,0.269-2.742,0.712-4.119c0.441-1.385,1.061-2.701,1.759-3.717c0.805-1.291,1.747-2.418,2.739-3.492
			c0.991-1.076,2.041-2.098,3.058-3.172c1.291-0.539,2.42-1.045,3.479-1.529C192.423,158.829,193.416,158.372,194.435,157.946z"/>
	</g>
	<g>
		<path fill="#004EBC" d="M145.249,28.523l0.589-0.485l0.592-0.483c0,0,0.053-0.027,0.161-0.094
			c0.106-0.067,0.268-0.174,0.481-0.335c4.621-3.007,9.452-5.557,14.354-7.854c4.896-2.293,9.866-4.335,14.754-6.32
			c0,2.36-0.19,4.67-0.378,6.951c-0.187,2.284-0.374,4.539-0.374,6.795v0.428v0.429c0,0.434,0,0.646,0,0.77c0,0.118,0,0.146,0,0.199
			c0.158,2.041,0.43,3.945,1.006,5.719c0.575,1.772,1.464,3.409,2.86,4.914c3.486,5.101,8.511,7.785,13.974,9.222
			c5.465,1.438,11.374,1.625,16.634,1.73c-3.381,12.459-10.688,23.416-20.312,31.928c-9.623,8.512-21.57,14.576-34.246,17.264
			c-4.776,1.018-9.746,1.985-14.7,2.539c-4.954,0.551-9.892,0.686-14.617,0.041c4.618-3.167,9.773-5.427,14.82-7.882
			c5.047-2.459,9.988-5.117,14.174-9.088c4.998-4.51,10.018-9.426,13.789-14.971c3.773-5.545,6.298-11.725,6.298-18.756
			c0.321-1.287,0.133-2.389-0.499-3.303c-0.63-0.91-1.705-1.639-3.155-2.174c-2.523-1.611-5.608-2.416-8.755-2.416
			c-3.137,0-6.334,0.805-9.073,2.416c-1.289,2.201-2.253,4.697-2.939,7.277c-0.686,2.578-1.086,5.234-1.246,7.758
			c-5.695,1.719-10.901-0.4-14.22-4.24s-4.74-9.396-2.86-14.553c1.559-2.524,3.545-4.966,5.762-7.237
			C140.334,32.442,142.776,30.349,145.249,28.523z"/>
		<path fill="#004EBC" d="M181.441,27.555c-0.375-1.234-0.646-2.603-0.78-4.039c-0.133-1.436-0.133-2.939,0.028-4.444
			c0.162-0.912,0.51-1.986,1.021-3.1c0.509-1.116,1.181-2.271,1.985-3.341c0.484-1.185,1.13-2.179,2.001-3.036
			c0.874-0.86,1.973-1.586,3.371-2.229c1.128-1.072,2.469-1.825,3.985-2.361c1.515-0.538,3.209-0.86,5.034-1.075
			c1.985-0.11,4.056,0.053,6.07,0.616c2.012,0.562,3.975,1.529,5.744,3.034c1.128,0.699,2.173,1.422,3.099,2.216
			c0.933,0.791,1.731,1.649,2.379,2.617c1.021,1.558,1.935,3.464,2.592,5.479c0.654,2.012,1.058,4.135,1.058,6.12
			c0,0,0.054,0.591,0.08,1.332c0.027,0.737,0.027,1.622-0.08,2.211c-0.266,0.861-0.266,0.861-0.199,0.646
			c0.066-0.212,0.199-0.646,0.199-0.646c-0.427,1.56-0.909,3.036-1.501,4.433c-0.589,1.396-1.29,2.71-2.148,3.946
			c-0.859,0.858-1.691,1.666-2.63,2.51c-0.941,0.848-1.989,1.734-3.276,2.755c-0.806,0.376-1.666,0.696-2.553,0.949
			c-0.883,0.257-1.801,0.444-2.712,0.552c-0.642,0.322-1.45,0.484-2.294,0.484c-0.847,0-1.73-0.162-2.537-0.484
			c-1.558,0-3.06-0.188-4.433-0.535c-1.366-0.35-2.602-0.86-3.624-1.504c-1.125-0.967-2.385-1.907-3.571-2.98
			c-1.179-1.075-2.279-2.282-3.086-3.787c-0.914-0.861-1.556-1.878-2.054-2.967C182.111,29.84,181.763,28.683,181.441,27.555z"/>
	</g>
	<g>
		<path fill="#685C53" d="M52.561,76.853l-0.374-0.482l-0.378-0.484c0-0.16-0.08-0.242-0.229-0.295
			c-0.147-0.055-0.36-0.08-0.627-0.135c-3.171-4.564-5.802-9.318-8.071-14.189c-2.268-4.875-4.176-9.869-5.894-14.916
			c2.146,0,4.458,0.162,6.818,0.322c2.365,0.162,4.782,0.322,7.146,0.322h0.428h0.428c0.27,0,0.459,0,0.578-0.025
			c0.123-0.027,0.174-0.082,0.174-0.189c1.882,0,3.759-0.268,5.559-0.912c1.798-0.645,3.518-1.666,5.074-3.169
			c5.102-3.384,7.679-8.241,8.98-13.611c1.305-5.37,1.331-11.252,1.331-16.675c12.672,3.332,23.87,10.714,32.5,20.406
			c8.634,9.691,14.702,21.696,17.116,34.258c0.968,4.781,2.017,9.664,2.659,14.58c0.644,4.914,0.888,9.854,0.244,14.742
			c-3.011-4.889-5.317-10.098-7.841-15.131c-2.524-5.033-5.265-9.891-9.13-14.082c-4.563-4.834-9.531-9.799-15.09-13.6
			c-5.559-3.799-11.707-6.43-18.635-6.592c-1.448-0.107-2.576,0.295-3.53,0.996c-0.952,0.695-1.729,1.689-2.483,2.762
			c-1.342,2.848-2.148,6.016-2.189,9.158c-0.038,3.141,0.687,6.254,2.404,8.992c2.257,1.236,4.646,2.043,7.21,2.701
			c2.564,0.656,5.304,1.168,8.256,1.812c1.343,5.207-0.886,10.281-4.712,13.627c-3.828,3.342-9.249,4.955-14.3,3.23
			c-2.522-1.928-4.938-3.943-7.194-6.145C56.535,81.927,54.443,79.539,52.561,76.853z"/>
		<path fill="#685C53" d="M51.809,40.874c-1.34,0.537-2.735,0.887-4.12,1.061c-1.383,0.175-2.751,0.175-4.04,0.014
			c-1.503-0.105-2.715-0.428-3.842-0.966c-1.126-0.538-2.174-1.289-3.354-2.257c-1.075-0.537-2.176-1.236-3.155-2.094
			c-0.979-0.859-1.839-1.879-2.433-3.062c-0.802-1.182-1.449-2.687-1.93-4.293c-0.484-1.612-0.808-3.332-0.969-4.943
			c-0.16-2.094,0.053-4.241,0.579-6.282c0.523-2.04,1.354-3.974,2.428-5.639c0.859-1.074,1.69-2.016,2.551-2.845
			c0.859-0.834,1.745-1.56,2.713-2.202c1.717-1.396,3.624-2.363,5.598-2.981c1.972-0.616,4.016-0.888,5.999-0.888
			c0,0,0.646-0.161,1.466-0.24c0.819-0.08,1.813-0.08,2.509,0.24c0.915,0.11,0.915,0.11,0.687,0.081
			c-0.228-0.025-0.687-0.081-0.687-0.081c1.291,0.217,2.658,0.647,4.002,1.292c1.343,0.643,2.658,1.505,3.839,2.577
			c1.184,0.806,2.069,1.583,2.819,2.468c0.752,0.889,1.371,1.881,2.016,3.118c0.373,0.642,0.777,1.504,1.153,2.401
			c0.375,0.899,0.724,1.839,0.993,2.645c0.214,0.751,0.323,1.556,0.378,2.431c0.052,0.871,0.052,1.812,0.052,2.832
			c-0.216,1.449-0.672,2.766-1.234,4.055c-0.566,1.29-1.236,2.551-1.881,3.891c-0.805,1.183-1.717,2.364-2.671,3.464
			c-0.953,1.103-1.947,2.122-2.914,2.981c-1.343,0.699-2.389,1.451-3.396,2.055S52.993,40.767,51.809,40.874z"/>
	</g>
</g>
</svg>
